<svg width="20" height="21" viewBox="0 0 20 21" fill="none" xmlns="http://www.w3.org/2000/svg">
<path fill-rule="evenodd" clip-rule="evenodd" d="M6.1792 0.92749C6.69697 0.92749 7.1167 1.34722 7.1167 1.86499V2.33374H12.7417V1.86499C12.7417 1.34722 13.1614 0.92749 13.6792 0.92749C14.197 0.92749 14.6167 1.34722 14.6167 1.86499V2.33374H17.8979C18.9335 2.33374 19.7729 3.17322 19.7729 4.20874V18.74C19.7729 19.7755 18.9335 20.615 17.8979 20.615H1.96045C0.924924 20.615 0.0854492 19.7755 0.0854492 18.74V4.20874C0.0854492 3.17321 0.924915 2.33374 1.96045 2.33374H5.2417V1.86499C5.2417 1.34722 5.66143 0.92749 6.1792 0.92749ZM5.2417 4.20874H1.96045V7.95874H17.8979V4.20874H14.6167V5.61499C14.6167 6.13276 14.197 6.55249 13.6792 6.55249C13.1614 6.55249 12.7417 6.13276 12.7417 5.61499V4.20874H7.1167V5.61499C7.1167 6.13276 6.69697 6.55249 6.1792 6.55249C5.66143 6.55249 5.2417 6.13276 5.2417 5.61499V4.20874ZM17.8979 9.83374H1.96045V18.74H17.8979V9.83374ZM4.3042 12.1775C4.3042 11.6597 4.72393 11.24 5.2417 11.24H8.0542C8.57197 11.24 8.9917 11.6597 8.9917 12.1775C8.9917 12.6953 8.57197 13.115 8.0542 13.115H5.2417C4.72393 13.115 4.3042 12.6953 4.3042 12.1775ZM10.8667 12.1775C10.8667 11.6597 11.2864 11.24 11.8042 11.24H14.6167C15.1345 11.24 15.5542 11.6597 15.5542 12.1775C15.5542 12.6953 15.1345 13.115 14.6167 13.115H11.8042C11.2864 13.115 10.8667 12.6953 10.8667 12.1775ZM4.3042 15.9275C4.3042 15.4097 4.72393 14.99 5.2417 14.99H8.0542C8.57197 14.99 8.9917 15.4097 8.9917 15.9275C8.9917 16.4453 8.57197 16.865 8.0542 16.865H5.2417C4.72393 16.865 4.3042 16.4453 4.3042 15.9275ZM10.8667 15.9275C10.8667 15.4097 11.2864 14.99 11.8042 14.99H14.6167C15.1345 14.99 15.5542 15.4097 15.5542 15.9275C15.5542 16.4453 15.1345 16.865 14.6167 16.865H11.8042C11.2864 16.865 10.8667 16.4453 10.8667 15.9275Z" fill="#2A3043"/>
</svg>
