<svg width="19" height="16" viewBox="0 0 19 16" fill="none" xmlns="http://www.w3.org/2000/svg">
<path d="M18.634 9.79566C17.3558 8.95609 16.4598 7.67324 15.9705 5.98273C15.2515 3.49716 13.8016 2.14322 12.712 1.44506C11.5263 0.685244 10.5148 0.518409 10.4723 0.511859C10.3812 0.49741 10.2881 0.527463 10.2228 0.592964L7.92604 2.88954C7.91487 2.88743 7.90716 2.88608 7.90562 2.88588L7.90119 2.9144L5.20026 5.61535C5.19872 5.61689 5.19718 5.61824 5.19583 5.61978L0.488477 10.3274C0.375586 10.4403 0.375586 10.6231 0.488477 10.736C0.601369 10.8489 0.784192 10.8489 0.897084 10.736L5.49637 6.13666C6.18682 6.30041 9.25397 7.2392 10.3908 11.1681C10.9181 12.9913 11.8921 14.3811 13.2851 15.2991C13.3337 15.3311 13.389 15.3467 13.4439 15.3467C13.5184 15.3467 13.5924 15.318 13.6483 15.2623L18.6795 10.2416C18.7409 10.1804 18.7717 10.0943 18.7629 10.0078C18.754 9.92127 18.7068 9.84344 18.634 9.79566ZM16.1117 7.85645L14.0422 9.9257C13.7849 9.4487 13.5691 8.92816 13.4038 8.35676C13.2867 7.952 13.1489 7.57884 12.9969 7.23072L15.0679 5.15973C15.1966 5.46508 15.3139 5.79163 15.4156 6.1434C15.5956 6.76586 15.8287 7.33668 16.1117 7.85645ZM14.8074 4.60297L12.7322 6.67801C12.2618 5.78353 11.6892 5.09423 11.1042 4.56579L13.1724 2.4975C13.7565 3.00398 14.3362 3.6875 14.8074 4.60297ZM10.5224 1.11081C10.8632 1.18768 11.7561 1.44236 12.716 2.13686L10.6586 4.19417C9.86351 3.58251 9.0906 3.24421 8.56679 3.06621L10.5224 1.11081ZM5.96739 5.66563L8.10733 3.52568C8.53308 3.64319 9.37013 3.93872 10.2501 4.60259L8.09827 6.7543C7.95725 6.6493 7.81951 6.55452 7.68735 6.46975C7.00653 6.03359 6.38293 5.79278 5.96739 5.66563ZM8.55022 7.11975L10.6984 4.97151C11.2777 5.49244 11.847 6.18733 12.303 7.10723L10.2066 9.20365C9.71228 8.30031 9.12181 7.62103 8.55022 7.11975ZM10.4806 9.74692L12.5561 7.67131C12.6635 7.93717 12.7621 8.21786 12.8488 8.51743C13.0432 9.18959 13.2988 9.80241 13.6132 10.3547L11.5178 12.4502C11.2901 12.0073 11.0966 11.5289 10.9456 11.0076C10.8135 10.5497 10.6559 10.1309 10.4806 9.74692ZM13.41 14.6838C12.7746 14.2287 12.2441 13.6535 11.8143 12.9709L13.928 10.8574C14.3792 11.517 14.9276 12.0753 15.5699 12.5284L13.41 14.6838ZM15.9874 12.1119C15.338 11.6696 14.7911 11.1091 14.3478 10.4374L16.4174 8.36774C16.8578 9.0397 17.3943 9.61149 18.0264 10.0769L15.9874 12.1119Z" fill="#723A83"/>
</svg>
