<svg width="14" height="14" viewBox="0 0 14 14" fill="none" xmlns="http://www.w3.org/2000/svg">
<path fill-rule="evenodd" clip-rule="evenodd" d="M7.70711 1.70711C8.09763 1.31658 8.09763 0.683417 7.70711 0.292893C7.31658 -0.0976311 6.68342 -0.0976311 6.29289 0.292893L0.34753 6.23826C0.134724 6.42164 1.49012e-08 6.69313 1.49012e-08 6.99609L1.88848e-06 6.99805C-0.000495185 7.25462 0.0971353 7.51135 0.292893 7.70711L6.29289 13.7071C6.68342 14.0976 7.31658 14.0976 7.70711 13.7071C8.09763 13.3166 8.09763 12.6834 7.70711 12.2929L3.41031 7.99609H13C13.5523 7.99609 14 7.54838 14 6.99609C14 6.44381 13.5523 5.99609 13 5.99609H3.41812L7.70711 1.70711Z" fill="#2A3043"/>
</svg>
