<svg width="25" height="25" viewBox="0 0 25 25" fill="none" xmlns="http://www.w3.org/2000/svg">
<path fill-rule="evenodd" clip-rule="evenodd" d="M2.76104 7.7491C4.36348 4.675 7.69537 2.9072 11.1393 3.30385C14.3209 3.6703 16.9895 5.81397 18.0569 8.78594L18.4787 8.78594C20.8082 8.78441 23.1363 10.0156 23.9065 12.4467C24.645 14.7776 23.7874 17.3183 21.7873 18.7247C21.3355 19.0424 20.7117 18.9337 20.394 18.4819C20.0764 18.0302 20.1851 17.4064 20.6368 17.0887C21.9233 16.1841 22.4749 14.55 21.9999 13.0507C21.5567 11.6519 20.1684 10.7846 18.4803 10.7859L17.319 10.7859C16.8624 10.7859 16.4638 10.4767 16.3504 10.0345C15.6947 7.47914 13.5313 5.59258 10.9105 5.29072C8.2896 4.98886 5.75401 6.33417 4.53455 8.67358C3.31508 11.013 3.66427 13.8621 5.4126 15.8377C5.7786 16.2513 5.74001 16.8833 5.32642 17.2493C4.91282 17.6153 4.28083 17.5767 3.91483 17.1631C1.61746 14.567 1.1586 10.8232 2.76104 7.7491ZM12.2459 10.6776C12.6365 10.2871 13.2696 10.2871 13.6601 10.6776L16.8421 13.8596C17.2327 14.2501 17.2327 14.8833 16.8422 15.2738C16.4516 15.6643 15.8185 15.6643 15.4279 15.2738L13.9537 13.7996L13.9572 21.2482C13.9574 21.8005 13.5099 22.2484 12.9577 22.2487C12.4054 22.2489 11.9574 21.8014 11.9572 21.2492L11.9537 13.7983L10.4781 15.2738C10.0876 15.6643 9.45445 15.6643 9.06393 15.2738C8.67341 14.8833 8.67341 14.2501 9.06394 13.8596L12.2459 10.6776Z" fill="#495057"/>
</svg>
